<svg width="24" height="24" viewBox="0 0 24 24" fill="none" xmlns="http://www.w3.org/2000/svg">
<path d="M18.8336 18.5714V15.7143M18.8336 18.5714V21.4286M18.8336 18.5714H15.6672M18.8336 18.5714H22M15.0339 14.1418C13.8703 13.6831 12.5852 13.4286 11.2342 13.4286C6.85464 13.4286 3.1673 16.1029 2.0685 19.7405C1.7006 20.9584 2.8691 22 4.26811 22H12.5008M15.6672 6C15.6672 8.20914 13.6825 10 11.2342 10C8.78595 10 6.80124 8.20914 6.80124 6C6.80124 3.79086 8.78595 2 11.2342 2C13.6825 2 15.6672 3.79086 15.6672 6Z" stroke="white" stroke-width="2" stroke-linecap="round" stroke-linejoin="round"/>
</svg>
