<svg width="17" height="17" viewBox="0 0 17 17" fill="none" xmlns="http://www.w3.org/2000/svg">
<path d="M12.67 4.04936C12.3439 3.71169 11.8058 3.70233 11.4681 4.02845C11.1304 4.35457 11.1211 4.89268 11.4472 5.23035L12.67 4.04936ZM15.5198 8.22363L16.1312 8.81412C16.4494 8.48473 16.4494 7.96252 16.1312 7.63313L15.5198 8.22363ZM11.4472 11.2169C11.1211 11.5546 11.1304 12.0927 11.4681 12.4188C11.8058 12.7449 12.3439 12.7356 12.67 12.3979L11.4472 11.2169ZM5.51558 9.07335L14.923 9.07335V7.37335L5.51558 7.37335V9.07335ZM11.4472 5.23035L14.9084 8.81412L16.1312 7.63313L12.67 4.04936L11.4472 5.23035ZM14.9084 7.63313L11.4472 11.2169L12.67 12.3979L16.1312 8.81412L14.9084 7.63313ZM0.263281 3V13.4472H1.96328V3H0.263281ZM9.55859 0.15H3.11328V1.85H9.55859V0.15ZM3.11328 16.2972H9.55859V14.5972H3.11328V16.2972ZM0.263281 13.4472C0.263281 15.0213 1.53927 16.2972 3.11328 16.2972V14.5972C2.47815 14.5972 1.96328 14.0824 1.96328 13.4472H0.263281ZM1.96328 3C1.96328 2.36487 2.47815 1.85 3.11328 1.85V0.15C1.53927 0.15 0.263281 1.42599 0.263281 3H1.96328Z" fill="white"/>
</svg>
