<svg width="24" height="24" viewBox="0 0 24 24" fill="none" xmlns="http://www.w3.org/2000/svg">
<path d="M20 14.2V23M12 10.5333V23M4 18.6V23M5.33333 10.3602C4.9795 10.0118 4.51224 9.8 4 9.8C2.89543 9.8 2 10.785 2 12C2 13.215 2.89543 14.2 4 14.2C5.10457 14.2 6 13.215 6 12C6 11.3484 5.7425 10.763 5.33333 10.3602ZM5.33333 10.3602L10.5093 4.66667M10.5093 4.66667C10.8755 5.11675 11.4077 5.4 12 5.4C12.8708 5.4 13.6116 4.78781 13.8862 3.93333M10.5093 4.66667C10.1926 4.27745 10 3.76346 10 3.2C10 1.98497 10.8954 1 12 1C13.1046 1 14 1.98497 14 3.2C14 3.45713 13.9599 3.70396 13.8862 3.93333M13.8862 3.93333L18.0653 5.57363M18.0653 5.57363C18.0227 5.75234 18 5.93992 18 6.13333C18 7.34836 18.8954 8.33333 20 8.33333C21.1046 8.33333 22 7.34836 22 6.13333C22 4.91831 21.1046 3.93333 20 3.93333C19.0713 3.93333 18.2904 4.62968 18.0653 5.57363Z" stroke="white" stroke-width="2" stroke-linecap="round" stroke-linejoin="round"/>
</svg>
