<svg width="24" height="24" viewBox="0 0 24 24" fill="none" xmlns="http://www.w3.org/2000/svg">
<path d="M5.7037 15.8889H11.6296M5.7037 18.1111H16.0741M4.22222 22H19.7778C21.0051 22 22 21.2538 22 20.3333V3.66667C22 2.74619 21.0051 2 19.7778 2H4.22222C2.99492 2 2 2.74619 2 3.66667V20.3333C2 21.2538 2.99492 22 4.22222 22ZM5.7037 2H12.3704V9.5C12.3704 9.76695 11.9173 9.88023 11.7037 9.66667L10.8148 8.77778C9.92593 7.88889 8.14815 7.88889 7.25926 8.77778L6.37037 9.66667C6.15681 9.88023 5.7037 9.76695 5.7037 9.5V2Z" stroke="white" stroke-width="2" stroke-linecap="round" stroke-linejoin="round"/>
</svg>
