<svg width="54" height="45" viewBox="0 0 54 45" fill="none" xmlns="http://www.w3.org/2000/svg">
<path d="M14.652 36.36C12.732 36.36 10.98 36.036 9.396 35.388C7.812 34.74 6.432 33.828 5.256 32.652C4.08 31.476 3.168 30.096 2.52 28.512C1.872 26.928 1.548 25.188 1.548 23.292C1.548 21.396 1.872 19.656 2.52 18.072C3.168 16.488 4.08 15.108 5.256 13.932C6.432 12.756 7.812 11.844 9.396 11.196C10.98 10.548 12.72 10.224 14.616 10.224C16.512 10.224 18.252 10.548 19.836 11.196C21.42 11.844 22.8 12.756 23.976 13.932C25.152 15.108 26.052 16.488 26.676 18.072C27.324 19.656 27.648 21.396 27.648 23.292C27.648 25.164 27.324 26.904 26.676 28.512C26.052 30.096 25.152 31.476 23.976 32.652C22.8 33.828 21.42 34.74 19.836 35.388C18.252 36.036 16.524 36.36 14.652 36.36ZM14.616 30.6C15.6 30.6 16.5 30.42 17.316 30.06C18.156 29.7 18.876 29.196 19.476 28.548C20.1 27.876 20.58 27.096 20.916 26.208C21.252 25.32 21.42 24.348 21.42 23.292C21.42 22.236 21.252 21.264 20.916 20.376C20.58 19.488 20.1 18.72 19.476 18.072C18.876 17.4 18.156 16.884 17.316 16.524C16.5 16.164 15.6 15.984 14.616 15.984C13.632 15.984 12.72 16.164 11.88 16.524C11.064 16.884 10.344 17.4 9.72 18.072C9.096 18.72 8.616 19.488 8.28 20.376C7.968 21.264 7.812 22.236 7.812 23.292C7.812 24.348 7.968 25.332 8.28 26.244C8.616 27.132 9.096 27.9 9.72 28.548C10.344 29.196 11.064 29.7 11.88 30.06C12.72 30.42 13.632 30.6 14.616 30.6Z" fill="white"/>
<path d="M12.4992 15C12.4992 15 6.92756 24.0893 13.9997 23.5C21.0716 22.9107 17.9995 31 17.9995 31" stroke="white" stroke-width="4" stroke-linecap="round"/>
<path d="M45.792 36V10.8H51.912V36H45.792ZM30.168 36V10.8H36.288V36H30.168ZM32.544 26.172L32.58 20.7H49.032V26.172H32.544Z" fill="white"/>
<circle cx="15" cy="6" r="3" fill="white"/>
</svg>
