<svg width="24" height="24" viewBox="0 0 24 24" fill="none" xmlns="http://www.w3.org/2000/svg">
<path d="M16.0775 18.6667H20.0828C21.3469 18.6667 22.4274 17.4016 21.8316 16.1027C20.8521 13.967 18.6442 12.6667 16.0775 12.6667C14.8215 12.6667 13.6549 12.9634 12.6766 13.5152M1.16837 19.436C2.14794 17.3003 4.3558 16 6.92249 16C9.48919 16 11.697 17.3003 12.6766 19.436C13.2724 20.7349 12.1919 22 10.9278 22H2.91717C1.65313 22 0.572598 20.7349 1.16837 19.436ZM9.78344 8.66667C9.78344 10.5076 8.50255 12 6.92249 12C5.34244 12 4.06155 10.5076 4.06155 8.66667C4.06155 6.82572 5.34244 5.33333 6.92249 5.33333C8.50255 5.33333 9.78344 6.82572 9.78344 8.66667ZM18.9384 5.33333C18.9384 7.17428 17.6576 8.66667 16.0775 8.66667C14.4975 8.66667 13.2166 7.17428 13.2166 5.33333C13.2166 3.49238 14.4975 2 16.0775 2C17.6576 2 18.9384 3.49238 18.9384 5.33333Z" stroke="white" stroke-width="2" stroke-linecap="round" stroke-linejoin="round"/>
</svg>
