<svg width="24" height="24" viewBox="0 0 24 24" fill="none" xmlns="http://www.w3.org/2000/svg">
<path d="M3.35602 16.9391C6.14752 21.7787 12.33 23.4368 17.165 20.6427C19.3933 19.355 20.9465 17.3464 21.7004 15.0811C21.8073 14.7597 21.5985 14.4261 21.2664 14.3602L18.2278 13.7572C17.6382 13.6402 17.0661 13.991 16.771 14.5152C16.3163 15.3225 15.6464 16.0222 14.7865 16.5191C12.2268 17.9983 8.95367 17.1205 7.47582 14.5584C5.99797 11.9963 6.87499 8.72012 9.4347 7.24089C9.48827 7.20994 9.54215 7.18001 9.59632 7.15111C10.112 6.87601 10.4701 6.33465 10.3874 5.75562L9.94042 2.62542C9.89345 2.29655 9.57508 2.07678 9.25674 2.17081C8.50417 2.39309 7.76564 2.70724 7.05613 3.11726C2.22112 5.91135 0.564529 12.0996 3.35602 16.9391Z" stroke="white" stroke-width="2" stroke-linecap="round" stroke-linejoin="round"/>
<path d="M17.1077 9.96017C17.0084 9.70218 16.8878 9.44857 16.7453 9.2016C16.0965 8.07674 15.1016 7.27654 13.973 6.85791C13.4039 6.64681 12.9648 6.12855 12.9941 5.52175L13.1118 3.07684C13.1447 2.39312 13.7482 1.87171 14.4141 2.02782C17.0379 2.64299 19.4114 4.30049 20.8651 6.82082C21.3881 7.7274 21.7549 8.68131 21.974 9.65138C22.1294 10.3394 21.5669 10.9461 20.8622 10.9384L18.3511 10.911C17.7831 10.9048 17.3119 10.4908 17.1077 9.96017Z" stroke="white" stroke-width="2" stroke-linecap="round" stroke-linejoin="round"/>
</svg>
