<svg width="24" height="25" viewBox="0 0 24 25" fill="none" xmlns="http://www.w3.org/2000/svg">
<path d="M15.3468 18.037V21.4444C15.3468 22.8558 14.0037 24 12.3468 24H11.7481C10.106 24 8.76905 22.8754 8.74832 21.4767L8.69736 18.037M15.3468 18.037H8.69736M15.3468 18.037C15.3468 17.0055 16.1054 16.1063 17.0915 15.5076C19.4521 14.0744 21 11.6722 21 8.95062C21 4.55961 16.9706 1 12 1C7.02944 1 3 4.55961 3 8.95062C3 11.6865 4.56427 14.0996 6.9458 15.5301C7.91666 16.1132 8.6701 16.986 8.69633 17.9977L8.69736 18.037M12 4.19444C14.8995 4.19444 17.25 6.27089 17.25 8.8323" stroke="white" stroke-width="2" stroke-linecap="round" stroke-linejoin="round"/>
</svg>
