<svg width="40" height="40" viewBox="0 0 40 40" fill="none" xmlns="http://www.w3.org/2000/svg">
<rect width="40" height="40" rx="5" fill="#1E90FF"/>
<path d="M13.7037 25.0556H19.6296M13.7037 27.9444H24.0741M12.2222 33H27.7778C29.0051 33 30 32.0299 30 30.8333V9.16667C30 7.97005 29.0051 7 27.7778 7H12.2222C10.9949 7 10 7.97005 10 9.16667V30.8333C10 32.0299 10.9949 33 12.2222 33ZM13.7037 7H20.3704V16.75C20.3704 17.097 19.9173 17.2443 19.7037 16.9667L18.8148 15.8111C17.9259 14.6556 16.1481 14.6556 15.2593 15.8111L14.3704 16.9667C14.1568 17.2443 13.7037 17.097 13.7037 16.75V7Z" stroke="white" stroke-width="2" stroke-linecap="round" stroke-linejoin="round"/>
</svg>
