<svg width="26" height="32" viewBox="0 0 26 32" fill="none" xmlns="http://www.w3.org/2000/svg">
<path d="M17.999 25.1667V26C17.999 29.3137 15.7604 31 12.999 31C10.2376 31 7.99902 29.3137 7.99902 26V25.1667M17.999 25.1667H21.3939C24.1293 25.1667 25.7212 22.0375 24.2009 19.7635C23.0631 18.0618 21.9737 16.3259 21.4293 15.1667M17.999 25.1667H7.99902M7.99902 25.1667H4.6036C1.86825 25.1667 0.276364 22.0375 1.79668 19.7635C3.19792 17.6677 4.52589 15.5199 4.85259 14.4615C5.73992 11.5869 5.43953 10.2931 5.43953 8.6923C5.43953 5.33543 7.55259 2.48077 10.499 1.43055M23.8323 5.16667C23.8323 7.46785 21.9669 9.33333 19.6657 9.33333C17.3645 9.33333 15.499 7.46785 15.499 5.16667C15.499 2.86548 17.3645 1 19.6657 1C21.9669 1 23.8323 2.86548 23.8323 5.16667Z" stroke="black" stroke-width="2" stroke-linecap="round" stroke-linejoin="round"/>
</svg>
